# Blender v2.74 (sub 0) OBJ File: ''
# www.blender.org
mtllib coordenadas.mtl
o Cube_Cube.001
v 0.000000 0.237860 -0.393684
v 0.000000 0.237860 -1.745121
v -0.168193 0.168193 -0.393684
v -0.168192 0.168193 -1.745121
v -0.237860 0.000000 -0.393684
v -0.237860 0.000000 -1.745121
v -0.168193 -0.168193 -0.393684
v -0.168192 -0.168192 -1.745121
v 0.000000 -0.237860 -0.393684
v 0.000000 -0.237860 -1.745121
v 0.168193 -0.168193 -0.393684
v 0.168193 -0.168192 -1.745121
v 0.237860 0.000000 -0.393684
v 0.237861 0.000000 -1.745121
v 0.168193 0.168193 -0.393684
v 0.168193 0.168193 -1.745121
v -0.168192 0.168193 -3.050113
v 0.000000 0.237860 -3.050113
v -0.237860 0.000000 -3.050113
v -0.168192 -0.168192 -3.050113
v 0.000000 -0.237860 -3.050113
v 0.168193 -0.168192 -3.050113
v 0.237861 0.000000 -3.050113
v 0.168193 0.168193 -3.050113
v -0.168192 0.168193 -4.097479
v 0.000001 0.237861 -4.097479
v -0.237860 0.000000 -4.097479
v -0.168192 -0.168192 -4.097479
v 0.000001 -0.237860 -4.097479
v 0.168193 -0.168192 -4.097479
v 0.237861 0.000000 -4.097479
v 0.168193 0.168193 -4.097479
v 0.393684 0.237860 0.000000
v 1.745121 0.237860 0.000000
v 0.393684 0.168193 -0.168193
v 1.745121 0.168193 -0.168192
v 0.393684 0.000000 -0.237860
v 1.745121 0.000000 -0.237860
v 0.393684 -0.168193 -0.168193
v 1.745121 -0.168192 -0.168192
v 0.393684 -0.237860 0.000000
v 1.745121 -0.237860 0.000000
v 0.393684 -0.168193 0.168193
v 1.745121 -0.168192 0.168193
v 0.393684 0.000000 0.237860
v 1.745121 0.000000 0.237860
v 0.393684 0.168193 0.168193
v 1.745121 0.168193 0.168193
v 3.050113 0.168193 -0.168192
v 3.050113 0.237860 0.000000
v 3.050113 0.000000 -0.237860
v 3.050113 -0.168192 -0.168192
v 3.050113 -0.237860 0.000000
v 3.050113 -0.168192 0.168193
v 3.050113 0.000000 0.237860
v 3.050113 0.168193 0.168193
v 4.097479 0.168193 -0.168192
v 4.097479 0.237861 0.000000
v 4.097479 0.000000 -0.237860
v 4.097479 -0.168192 -0.168192
v 4.097479 -0.237860 0.000000
v 4.097479 -0.168192 0.168193
v 4.097479 0.000000 0.237861
v 4.097479 0.168193 0.168193
v -0.000000 0.393684 -0.237860
v -0.000000 1.745121 -0.237860
v 0.168193 0.393684 -0.168193
v 0.168193 1.745121 -0.168193
v 0.237860 0.393684 0.000000
v 0.237860 1.745121 0.000000
v 0.168193 0.393684 0.168193
v 0.168193 1.745121 0.168193
v -0.000000 0.393684 0.237860
v -0.000000 1.745121 0.237860
v -0.168193 0.393684 0.168193
v -0.168193 1.745121 0.168193
v -0.237860 0.393684 -0.000000
v -0.237860 1.745121 -0.000000
v -0.168193 0.393684 -0.168193
v -0.168193 1.745121 -0.168193
v 0.168193 3.050113 -0.168193
v -0.000000 3.050113 -0.237860
v 0.237860 3.050113 0.000000
v 0.168193 3.050113 0.168193
v -0.000000 3.050113 0.237860
v -0.168193 3.050113 0.168193
v -0.237860 3.050113 -0.000000
v -0.168193 3.050113 -0.168193
v 0.168193 4.097479 -0.168193
v -0.000000 4.097479 -0.237860
v 0.237860 4.097479 0.000000
v 0.168193 4.097479 0.168193
v -0.000000 4.097479 0.237860
v -0.168193 4.097479 0.168193
v -0.237860 4.097479 -0.000000
v -0.168193 4.097479 -0.168193
v -0.500000 -0.500000 0.500000
v -0.500000 0.500000 0.500000
v -0.500000 -0.500000 -0.500000
v -0.500000 0.500000 -0.500000
v 0.500000 -0.500000 0.500000
v 0.500000 0.500000 0.500000
v 0.500000 -0.500000 -0.500000
v 0.500000 0.500000 -0.500000
vn -1.000000 0.000000 0.000000
vn 0.000000 0.000000 -1.000000
vn 1.000000 0.000000 0.000000
vn 0.000000 0.000000 1.000000
vn 0.000000 -1.000000 0.000000
vn 0.000000 1.000000 0.000000
vn -0.707100 0.707100 0.000000
vn -0.707100 -0.707100 0.000000
vn 0.707100 -0.707100 0.000000
vn 0.707100 0.707100 0.000000
vn -0.549000 -0.549000 -0.630200
vn 0.000000 -0.776400 -0.630200
vn 0.549000 0.549000 -0.630200
vn 0.000000 0.776400 -0.630200
vn -0.776400 0.000000 -0.630200
vn 0.776400 0.000000 -0.630200
vn -0.549000 0.549000 -0.630200
vn 0.549000 -0.549000 -0.630200
vn 0.000000 0.707100 -0.707100
vn 0.000000 -0.707100 -0.707100
vn 0.000000 -0.707100 0.707100
vn 0.000000 0.707100 0.707100
vn 0.630200 -0.549000 -0.549000
vn 0.630200 -0.776400 0.000000
vn 0.630200 0.549000 0.549000
vn 0.630200 0.776400 0.000000
vn 0.630200 0.000000 -0.776400
vn 0.630200 0.000000 0.776400
vn 0.630200 0.549000 -0.549000
vn 0.630200 -0.549000 0.549000
vn 0.707100 0.000000 -0.707100
vn 0.707100 0.000000 0.707100
vn -0.707100 0.000000 0.707100
vn -0.707100 0.000000 -0.707100
vn 0.549000 0.630200 0.549000
vn 0.000000 0.630200 0.776400
vn -0.549000 0.630200 -0.549000
vn 0.000000 0.630200 -0.776400
vn 0.776400 0.630200 0.000000
vn -0.776400 0.630200 0.000000
vn 0.549000 0.630200 -0.549000
vn -0.549000 0.630200 0.549000
usemtl Material.001
s off
f 100//1 99//1 97//1
f 104//2 103//2 99//2
f 102//3 101//3 103//3
f 98//4 97//4 101//4
f 99//5 103//5 101//5
f 104//6 100//6 98//6
f 98//1 100//1 97//1
f 100//2 104//2 99//2
f 104//3 102//3 103//3
f 102//4 98//4 101//4
f 97//5 99//5 101//5
f 102//6 104//6 98//6
usemtl Material.002
f 25//2 32//2 30//2
f 28//2 27//2 25//2
f 30//2 29//2 28//2
f 32//2 31//2 30//2
f 25//2 26//2 32//2
f 30//2 28//2 25//2
s 1
f 1//6 2//6 4//7
f 4//7 6//1 5//1
f 6//1 8//8 7//8
f 8//8 10//5 9//5
f 10//5 12//9 11//9
f 12//9 14//3 13//3
f 12//9 22//9 23//3
f 16//10 2//6 1//6
f 14//3 16//10 15//10
f 20//8 28//11 29//12
f 8//8 20//8 21//5
f 2//6 18//6 17//7
f 14//3 23//3 24//10
f 4//7 17//7 19//1
f 12//9 10//5 21//5
f 2//6 16//10 24//10
f 8//8 6//1 19//1
f 24//10 32//13 26//14
f 19//1 27//15 28//11
f 23//3 31//16 32//13
f 17//7 25//17 27//15
f 22//9 30//18 31//16
f 18//6 26//14 25//17
f 21//5 29//12 30//18
f 3//7 1//6 4//7
f 3//7 4//7 5//1
f 5//1 6//1 7//8
f 7//8 8//8 9//5
f 9//5 10//5 11//9
f 11//9 12//9 13//3
f 14//3 12//9 23//3
f 15//10 16//10 1//6
f 13//3 14//3 15//10
f 21//5 20//8 29//12
f 10//5 8//8 21//5
f 4//7 2//6 17//7
f 16//10 14//3 24//10
f 6//1 4//7 19//1
f 22//9 12//9 21//5
f 18//6 2//6 24//10
f 20//8 8//8 19//1
f 18//6 24//10 26//14
f 20//8 19//1 28//11
f 24//10 23//3 32//13
f 19//1 17//7 27//15
f 23//3 22//9 31//16
f 17//7 18//6 25//17
f 22//9 21//5 30//18
usemtl Material.004
s off
f 57//3 64//3 62//3
f 60//3 59//3 57//3
f 62//3 61//3 60//3
f 64//3 63//3 62//3
f 57//3 58//3 64//3
f 62//3 60//3 57//3
s 1
f 33//6 34//6 36//19
f 36//19 38//2 37//2
f 38//2 40//20 39//20
f 39//20 40//20 42//5
f 42//5 44//21 43//21
f 44//21 46//4 45//4
f 44//21 54//21 55//4
f 48//22 34//6 33//6
f 46//4 48//22 47//22
f 52//20 60//23 61//24
f 40//20 52//20 53//5
f 34//6 50//6 49//19
f 46//4 55//4 56//22
f 36//19 49//19 51//2
f 42//5 53//5 54//21
f 48//22 56//22 50//6
f 38//2 51//2 52//20
f 56//22 64//25 58//26
f 51//2 59//27 60//23
f 55//4 63//28 64//25
f 49//19 57//29 59//27
f 54//21 62//30 63//28
f 50//6 58//26 57//29
f 53//5 61//24 62//30
f 35//19 33//6 36//19
f 35//19 36//19 37//2
f 37//2 38//2 39//20
f 41//5 39//20 42//5
f 41//5 42//5 43//21
f 43//21 44//21 45//4
f 46//4 44//21 55//4
f 47//22 48//22 33//6
f 45//4 46//4 47//22
f 53//5 52//20 61//24
f 42//5 40//20 53//5
f 36//19 34//6 49//19
f 48//22 46//4 56//22
f 38//2 36//19 51//2
f 44//21 42//5 54//21
f 34//6 48//22 50//6
f 40//20 38//2 52//20
f 50//6 56//22 58//26
f 52//20 51//2 60//23
f 56//22 55//4 64//25
f 51//2 49//19 59//27
f 55//4 54//21 63//28
f 49//19 50//6 57//29
f 54//21 53//5 62//30
usemtl Material.003
s off
f 89//6 96//6 94//6
f 92//6 91//6 89//6
f 94//6 93//6 92//6
f 96//6 95//6 94//6
f 89//6 90//6 96//6
f 94//6 92//6 89//6
s 1
f 66//2 68//31 67//31
f 68//31 70//3 69//3
f 70//3 72//32 71//32
f 72//32 74//4 73//4
f 74//4 76//33 75//33
f 76//33 78//1 77//1
f 76//33 86//33 87//1
f 80//34 66//2 65//2
f 78//1 80//34 79//34
f 84//32 92//35 93//36
f 72//32 84//32 85//4
f 66//2 82//2 81//31
f 78//1 87//1 88//34
f 68//31 81//31 83//3
f 74//4 85//4 86//33
f 80//34 88//34 82//2
f 70//3 83//3 84//32
f 88//34 96//37 90//38
f 83//3 91//39 92//35
f 87//1 95//40 96//37
f 81//31 89//41 91//39
f 86//33 94//42 95//40
f 82//2 90//38 89//41
f 85//4 93//36 94//42
f 65//2 66//2 67//31
f 67//31 68//31 69//3
f 69//3 70//3 71//32
f 71//32 72//32 73//4
f 73//4 74//4 75//33
f 75//33 76//33 77//1
f 78//1 76//33 87//1
f 79//34 80//34 65//2
f 77//1 78//1 79//34
f 85//4 84//32 93//36
f 74//4 72//32 85//4
f 68//31 66//2 81//31
f 80//34 78//1 88//34
f 70//3 68//31 83//3
f 76//33 74//4 86//33
f 66//2 80//34 82//2
f 72//32 70//3 84//32
f 82//2 88//34 90//38
f 84//32 83//3 92//35
f 88//34 87//1 96//37
f 83//3 81//31 91//39
f 87//1 86//33 95//40
f 81//31 82//2 89//41
f 86//33 85//4 94//42
